<svg width="123" height="22" viewBox="0 0 123 22" fill="none" xmlns="http://www.w3.org/2000/svg">
<path d="M4.95 21.6904V18.0604H10.32C11.68 18.0604 12.87 17.7804 13.89 17.2204C14.91 16.6404 15.7 15.8304 16.26 14.7904C16.84 13.7504 17.13 12.5204 17.13 11.1004C17.13 9.72043 16.84 8.52043 16.26 7.50043C15.68 6.46043 14.88 5.66043 13.86 5.10043C12.84 4.52043 11.66 4.23043 10.32 4.23043H4.86V0.600429H10.38C11.94 0.600429 13.38 0.860429 14.7 1.38043C16.04 1.90043 17.2 2.64043 18.18 3.60043C19.18 4.54043 19.95 5.65043 20.49 6.93043C21.05 8.21043 21.33 9.61043 21.33 11.1304C21.33 12.6504 21.05 14.0604 20.49 15.3604C19.95 16.6404 19.19 17.7604 18.21 18.7204C17.23 19.6604 16.07 20.3904 14.73 20.9104C13.41 21.4304 11.98 21.6904 10.44 21.6904H4.95ZM2.16 21.6904V0.600429H6.24V21.6904H2.16ZM29.9121 21.9904C28.5921 21.9904 27.4021 21.6604 26.3421 21.0004C25.2821 20.3404 24.4521 19.4404 23.8521 18.3004C23.2521 17.1604 22.9521 15.8804 22.9521 14.4604C22.9521 13.0204 23.2521 11.7304 23.8521 10.5904C24.4521 9.45043 25.2821 8.55043 26.3421 7.89043C27.4021 7.23043 28.5921 6.90043 29.9121 6.90043C30.9521 6.90043 31.8821 7.11043 32.7021 7.53043C33.5221 7.95043 34.1721 8.54043 34.6521 9.30043C35.1521 10.0404 35.4221 10.8804 35.4621 11.8204V17.0404C35.4221 18.0004 35.1521 18.8504 34.6521 19.5904C34.1721 20.3304 33.5221 20.9204 32.7021 21.3604C31.8821 21.7804 30.9521 21.9904 29.9121 21.9904ZM30.6321 18.3604C31.7321 18.3604 32.6221 18.0004 33.3021 17.2804C33.9821 16.5404 34.3221 15.5904 34.3221 14.4304C34.3221 13.6704 34.1621 13.0004 33.8421 12.4204C33.5421 11.8204 33.1121 11.3604 32.5521 11.0404C32.0121 10.7004 31.3721 10.5304 30.6321 10.5304C29.9121 10.5304 29.2721 10.7004 28.7121 11.0404C28.1721 11.3604 27.7421 11.8204 27.4221 12.4204C27.1221 13.0004 26.9721 13.6704 26.9721 14.4304C26.9721 15.2104 27.1221 15.9004 27.4221 16.5004C27.7421 17.0804 28.1721 17.5404 28.7121 17.8804C29.2721 18.2004 29.9121 18.3604 30.6321 18.3604ZM34.1121 21.6904V17.7904L34.7421 14.2504L34.1121 10.7704V7.20043H38.0121V21.6904H34.1121ZM43.3188 21.6904V1.17043H47.2488V21.6904H43.3188ZM39.9288 10.6504V7.20043H50.6388V10.6504H39.9288ZM58.2574 21.9904C56.9374 21.9904 55.7474 21.6604 54.6874 21.0004C53.6274 20.3404 52.7974 19.4404 52.1974 18.3004C51.5974 17.1604 51.2974 15.8804 51.2974 14.4604C51.2974 13.0204 51.5974 11.7304 52.1974 10.5904C52.7974 9.45043 53.6274 8.55043 54.6874 7.89043C55.7474 7.23043 56.9374 6.90043 58.2574 6.90043C59.2974 6.90043 60.2274 7.11043 61.0474 7.53043C61.8674 7.95043 62.5174 8.54043 62.9974 9.30043C63.4974 10.0404 63.7674 10.8804 63.8074 11.8204V17.0404C63.7674 18.0004 63.4974 18.8504 62.9974 19.5904C62.5174 20.3304 61.8674 20.9204 61.0474 21.3604C60.2274 21.7804 59.2974 21.9904 58.2574 21.9904ZM58.9774 18.3604C60.0774 18.3604 60.9674 18.0004 61.6474 17.2804C62.3274 16.5404 62.6674 15.5904 62.6674 14.4304C62.6674 13.6704 62.5074 13.0004 62.1874 12.4204C61.8874 11.8204 61.4574 11.3604 60.8974 11.0404C60.3574 10.7004 59.7174 10.5304 58.9774 10.5304C58.2574 10.5304 57.6174 10.7004 57.0574 11.0404C56.5174 11.3604 56.0874 11.8204 55.7674 12.4204C55.4674 13.0004 55.3174 13.6704 55.3174 14.4304C55.3174 15.2104 55.4674 15.9004 55.7674 16.5004C56.0874 17.0804 56.5174 17.5404 57.0574 17.8804C57.6174 18.2004 58.2574 18.3604 58.9774 18.3604ZM62.4574 21.6904V17.7904L63.0874 14.2504L62.4574 10.7704V7.20043H66.3574V21.6904H62.4574ZM79.7341 21.9904C78.1941 21.9904 76.7641 21.7204 75.4441 21.1804C74.1241 20.6204 72.9641 19.8504 71.9641 18.8704C70.9841 17.8704 70.2241 16.7104 69.6841 15.3904C69.1641 14.0704 68.9041 12.6504 68.9041 11.1304C68.9041 9.61043 69.1641 8.19043 69.6841 6.87043C70.2241 5.55043 70.9841 4.40043 71.9641 3.42043C72.9641 2.44043 74.1141 1.67043 75.4141 1.11043C76.7341 0.550428 78.1741 0.270428 79.7341 0.270428C81.4141 0.270428 82.8941 0.550428 84.1741 1.11043C85.4541 1.65043 86.5841 2.40043 87.5641 3.36043L84.8041 6.12043C84.2241 5.48043 83.5141 4.98043 82.6741 4.62043C81.8341 4.26043 80.8541 4.08043 79.7341 4.08043C78.7541 4.08043 77.8541 4.25043 77.0341 4.59043C76.2341 4.91043 75.5341 5.39043 74.9341 6.03043C74.3341 6.65043 73.8741 7.40043 73.5541 8.28043C73.2341 9.14043 73.0741 10.0904 73.0741 11.1304C73.0741 12.1904 73.2341 13.1504 73.5541 14.0104C73.8741 14.8704 74.3341 15.6204 74.9341 16.2604C75.5341 16.8804 76.2341 17.3604 77.0341 17.7004C77.8541 18.0404 78.7541 18.2104 79.7341 18.2104C80.9141 18.2104 81.9241 18.0304 82.7641 17.6704C83.6241 17.3104 84.3441 16.8004 84.9241 16.1404L87.6841 18.9004C86.7041 19.8804 85.5641 20.6404 84.2641 21.1804C82.9641 21.7204 81.4541 21.9904 79.7341 21.9904ZM95.9805 21.9904C94.7005 21.9904 93.5605 21.7204 92.5605 21.1804C91.5805 20.6404 90.8105 19.8904 90.2505 18.9304C89.6905 17.9704 89.4105 16.8604 89.4105 15.6004V7.20043H93.3705V15.5104C93.3705 16.1104 93.4705 16.6304 93.6705 17.0704C93.8705 17.4904 94.1705 17.8104 94.5705 18.0304C94.9705 18.2504 95.4405 18.3604 95.9805 18.3604C96.8005 18.3604 97.4405 18.1104 97.9005 17.6104C98.3605 17.1104 98.5905 16.4104 98.5905 15.5104V7.20043H102.521V15.6004C102.521 16.8804 102.241 18.0004 101.681 18.9604C101.141 19.9204 100.371 20.6704 99.3705 21.2104C98.3905 21.7304 97.2605 21.9904 95.9805 21.9904ZM105.35 21.6904V0.0004282H109.28V21.6904H105.35ZM114.592 21.6904V1.17043H118.522V21.6904H114.592ZM111.202 10.6504V7.20043H121.912V10.6504H111.202Z" fill="white"/>
</svg>
