<svg width="176" height="38" viewBox="0 0 176 38" fill="none" xmlns="http://www.w3.org/2000/svg">
<rect x="17" y="16.25" width="6" height="6" fill="#07E77D"/>
<path fill-rule="evenodd" clip-rule="evenodd" d="M18.4276 30.4531C23.1741 29.5643 24.6646 37.0654 19.7049 37.9296C14.7586 38.791 13.2336 31.4255 18.4276 30.4531ZM24.4618 8.23041C25.3756 7.43512 26.9289 7.17502 28.2606 7.74213C30.9432 8.88408 31.2059 12.2336 29.452 13.9414C28.3629 15.0011 27.5688 14.7867 25.9491 15.247C22.8408 16.1299 22.3887 19.2415 23.616 21.1494C25.2337 23.6633 28.1517 22.2187 29.8055 24.4785C31.6047 26.9372 30.0562 29.8633 27.7 30.4726C26.2571 30.8457 24.7279 30.2082 24.0496 29.4921C23.0139 28.3983 23.2705 27.5935 22.7059 26.0292C21.614 23.005 18.9484 22.2995 16.8543 23.7236C14.4205 25.3792 15.6682 28.2929 13.4598 29.8437C10.9801 31.5847 8.12154 30.0832 7.5096 27.7148C7.1456 26.3058 7.73863 24.8408 8.43929 24.1025C9.33673 23.1579 10.3915 23.1947 11.9403 22.789C15.0548 21.9734 15.6218 18.8259 14.327 16.8388C12.687 14.3231 9.82763 15.8312 8.15511 13.4902C6.71675 11.4766 7.23936 8.48854 10.2537 7.58393C11.6905 7.15253 13.1494 7.80913 13.8787 8.51069C15.4086 9.98241 14.66 13.3541 17.37 14.6357C18.6357 15.2341 20.0599 15.0543 21.0584 14.3408C23.633 12.4996 22.1539 10.2375 24.4618 8.23041ZM33.5692 15.289C35.7553 14.8818 37.6025 16.5173 37.9256 18.2451C38.3644 20.5937 36.7842 22.415 34.9051 22.7294C32.563 23.1208 30.795 21.5491 30.4539 19.6523C30.0335 17.3119 31.7166 15.6346 33.5692 15.289ZM3.3641 15.2568C5.53097 14.9781 7.34541 16.6621 7.53304 18.5839C7.7482 20.7925 6.17935 22.5597 4.24105 22.7587C-0.779939 23.2741 -1.6773 15.9059 3.3641 15.2568ZM21.7645 17.3837C21.876 17.0923 21.5826 16.8071 21.2948 16.9277L20.5194 17.2529C19.8495 17.5334 19.0961 17.5451 18.4149 17.2861L17.5282 16.9492C17.2373 16.8388 16.9564 17.1287 17.076 17.416L17.453 18.3193C17.726 18.9751 17.7442 19.7082 17.5037 20.374L17.2332 21.123C17.1296 21.4105 17.4149 21.687 17.6991 21.5742L18.4383 21.2812C19.0964 21.02 19.8298 21.015 20.494 21.2675L21.409 21.6152C21.6999 21.7258 21.9808 21.4357 21.8612 21.1484L21.4969 20.2734C21.2168 19.6005 21.2052 18.8472 21.4647 18.1689L21.7645 17.3837ZM18.202 0.081C20.5347 -0.374506 22.325 1.15675 22.7137 3.02924C23.1874 5.3119 21.6091 7.13806 19.7899 7.53608C17.4809 8.04116 15.6659 6.44004 15.2537 4.62202C14.7327 2.32408 16.3836 0.436093 18.202 0.081Z" fill="white"/>
<path d="M50.4201 30.25V26.378H56.1481C57.5988 26.378 58.8681 26.0793 59.9561 25.482C61.0441 24.8633 61.8868 23.9993 62.4841 22.89C63.1028 21.7807 63.4121 20.4687 63.4121 18.954C63.4121 17.482 63.1028 16.202 62.4841 15.114C61.8655 14.0047 61.0121 13.1513 59.9241 12.554C58.8361 11.9353 57.5775 11.626 56.1481 11.626H50.3241V7.754H56.2121C57.8761 7.754 59.4121 8.03133 60.8201 8.586C62.2495 9.14067 63.4868 9.93 64.5321 10.954C65.5988 11.9567 66.4201 13.1407 66.9961 14.506C67.5935 15.8713 67.8921 17.3647 67.8921 18.986C67.8921 20.6073 67.5935 22.1113 66.9961 23.498C66.4201 24.8633 65.6095 26.058 64.5641 27.082C63.5188 28.0847 62.2815 28.8633 60.8521 29.418C59.4441 29.9727 57.9188 30.25 56.2761 30.25H50.4201ZM47.4441 30.25V7.754H51.7961V30.25H47.4441ZM77.0464 30.57C75.6384 30.57 74.3691 30.218 73.2384 29.514C72.1077 28.81 71.2224 27.85 70.5824 26.634C69.9424 25.418 69.6224 24.0527 69.6224 22.538C69.6224 21.002 69.9424 19.626 70.5824 18.41C71.2224 17.194 72.1077 16.234 73.2384 15.53C74.3691 14.826 75.6384 14.474 77.0464 14.474C78.1557 14.474 79.1477 14.698 80.0224 15.146C80.8971 15.594 81.5904 16.2233 82.1024 17.034C82.6357 17.8233 82.9237 18.7193 82.9664 19.722V25.29C82.9237 26.314 82.6357 27.2207 82.1024 28.01C81.5904 28.7993 80.8971 29.4287 80.0224 29.898C79.1477 30.346 78.1557 30.57 77.0464 30.57ZM77.8144 26.698C78.9877 26.698 79.9371 26.314 80.6624 25.546C81.3877 24.7567 81.7504 23.7433 81.7504 22.506C81.7504 21.6953 81.5797 20.9807 81.2384 20.362C80.9184 19.722 80.4597 19.2313 79.8624 18.89C79.2864 18.5273 78.6037 18.346 77.8144 18.346C77.0464 18.346 76.3637 18.5273 75.7664 18.89C75.1904 19.2313 74.7317 19.722 74.3904 20.362C74.0704 20.9807 73.9104 21.6953 73.9104 22.506C73.9104 23.338 74.0704 24.074 74.3904 24.714C74.7317 25.3327 75.1904 25.8233 75.7664 26.186C76.3637 26.5273 77.0464 26.698 77.8144 26.698ZM81.5264 30.25V26.09L82.1984 22.314L81.5264 18.602V14.794H85.6864V30.25H81.5264ZM91.3469 30.25V8.362H95.5389V30.25H91.3469ZM87.7309 18.474V14.794H99.1549V18.474H87.7309ZM107.281 30.57C105.873 30.57 104.604 30.218 103.473 29.514C102.343 28.81 101.457 27.85 100.817 26.634C100.177 25.418 99.8574 24.0527 99.8574 22.538C99.8574 21.002 100.177 19.626 100.817 18.41C101.457 17.194 102.343 16.234 103.473 15.53C104.604 14.826 105.873 14.474 107.281 14.474C108.391 14.474 109.383 14.698 110.257 15.146C111.132 15.594 111.825 16.2233 112.337 17.034C112.871 17.8233 113.159 18.7193 113.201 19.722V25.29C113.159 26.314 112.871 27.2207 112.337 28.01C111.825 28.7993 111.132 29.4287 110.257 29.898C109.383 30.346 108.391 30.57 107.281 30.57ZM108.049 26.698C109.223 26.698 110.172 26.314 110.897 25.546C111.623 24.7567 111.985 23.7433 111.985 22.506C111.985 21.6953 111.815 20.9807 111.473 20.362C111.153 19.722 110.695 19.2313 110.097 18.89C109.521 18.5273 108.839 18.346 108.049 18.346C107.281 18.346 106.599 18.5273 106.001 18.89C105.425 19.2313 104.967 19.722 104.625 20.362C104.305 20.9807 104.145 21.6953 104.145 22.506C104.145 23.338 104.305 24.074 104.625 24.714C104.967 25.3327 105.425 25.8233 106.001 26.186C106.599 26.5273 107.281 26.698 108.049 26.698ZM111.761 30.25V26.09L112.433 22.314L111.761 18.602V14.794H115.921V30.25H111.761ZM130.19 30.57C128.547 30.57 127.022 30.282 125.614 29.706C124.206 29.1087 122.969 28.2873 121.902 27.242C120.857 26.1753 120.046 24.938 119.47 23.53C118.915 22.122 118.638 20.6073 118.638 18.986C118.638 17.3647 118.915 15.85 119.47 14.442C120.046 13.034 120.857 11.8073 121.902 10.762C122.969 9.71667 124.195 8.89533 125.582 8.298C126.99 7.70067 128.526 7.402 130.19 7.402C131.982 7.402 133.561 7.70067 134.926 8.298C136.291 8.874 137.497 9.674 138.542 10.698L135.598 13.642C134.979 12.9593 134.222 12.426 133.326 12.042C132.43 11.658 131.385 11.466 130.19 11.466C129.145 11.466 128.185 11.6473 127.31 12.01C126.457 12.3513 125.71 12.8633 125.07 13.546C124.43 14.2073 123.939 15.0073 123.598 15.946C123.257 16.8633 123.086 17.8767 123.086 18.986C123.086 20.1167 123.257 21.1407 123.598 22.058C123.939 22.9753 124.43 23.7753 125.07 24.458C125.71 25.1193 126.457 25.6313 127.31 25.994C128.185 26.3567 129.145 26.538 130.19 26.538C131.449 26.538 132.526 26.346 133.422 25.962C134.339 25.578 135.107 25.034 135.726 24.33L138.67 27.274C137.625 28.3193 136.409 29.13 135.022 29.706C133.635 30.282 132.025 30.57 130.19 30.57ZM147.519 30.57C146.154 30.57 144.938 30.282 143.871 29.706C142.826 29.13 142.005 28.33 141.407 27.306C140.81 26.282 140.511 25.098 140.511 23.754V14.794H144.735V23.658C144.735 24.298 144.842 24.8527 145.055 25.322C145.269 25.77 145.589 26.1113 146.015 26.346C146.442 26.5807 146.943 26.698 147.519 26.698C148.394 26.698 149.077 26.4313 149.567 25.898C150.058 25.3647 150.303 24.618 150.303 23.658V14.794H154.495V23.754C154.495 25.1193 154.197 26.314 153.599 27.338C153.023 28.362 152.202 29.162 151.135 29.738C150.09 30.2927 148.885 30.57 147.519 30.57ZM157.514 30.25V7.114H161.706V30.25H157.514ZM167.372 30.25V8.362H171.564V30.25H167.372ZM163.756 18.474V14.794H175.18V18.474H163.756Z" fill="white"/>
</svg>
