<svg width="64" height="64" viewBox="0 0 64 64" fill="none" xmlns="http://www.w3.org/2000/svg">
<path d="M40.431 51.0314L39.555 50.5491L39.5502 50.558L40.431 51.0314ZM55.5791 23.5187L54.708 23.0275L54.7031 23.0364L55.5791 23.5187ZM36.3202 12.915L37.1962 13.3974L37.201 13.3885L36.3202 12.915ZM21.1721 40.4278L22.0432 40.919L22.0481 40.9101L21.1721 40.4278ZM29.2274 25.7959C28.7436 25.5295 28.1355 25.7058 27.8691 26.1896C27.6027 26.6734 27.779 27.2815 28.2628 27.5479L28.7451 26.6719L29.2274 25.7959ZM47.5217 38.1516C48.0055 38.4179 48.6137 38.2417 48.8801 37.7579C49.1464 37.2741 48.9702 36.6659 48.4864 36.3996L48.0041 37.2756L47.5217 38.1516ZM12.3036 35.6437L11.4376 36.1437L11.7263 36.6437H12.3036V35.6437ZM6.91421 26.3089L6.04818 25.8089L5.75951 26.3089L6.04818 26.8089L6.91421 26.3089ZM12.3036 16.9742V15.9742L11.7263 15.9742L11.4376 16.4742L12.3036 16.9742ZM23.0824 16.9742L23.9485 16.4742L23.6598 15.9742H23.0824V16.9742ZM12.3735 26.3079L11.5005 25.8202L11.2235 26.3161L11.5075 26.8079L12.3735 26.3079ZM40.431 51.0314L41.307 51.5138L56.4551 24.001L55.5791 23.5187L54.7031 23.0364L39.555 50.5491L40.431 51.0314ZM55.5791 23.5187L56.4502 24.0098C57.2287 22.629 57.7258 21.1076 57.9127 19.5335L56.9196 19.4156L55.9266 19.2977C55.7709 20.6093 55.3567 21.877 54.708 23.0275L55.5791 23.5187ZM56.9196 19.4156L57.9127 19.5335C58.0995 17.9594 57.9725 16.3639 57.5389 14.8392L56.5771 15.1127L55.6152 15.3862C55.9765 16.6567 56.0823 17.9861 55.9266 19.2977L56.9196 19.4156ZM56.5771 15.1127L57.5389 14.8392C57.1054 13.3145 56.3738 11.8908 55.3866 10.6506L54.6042 11.2734L53.8218 11.8962C54.6444 12.9296 55.2539 14.1158 55.6152 15.3862L56.5771 15.1127ZM54.6042 11.2734L55.3866 10.6506C54.3994 9.41038 53.1762 8.37816 51.7876 7.61362L51.3053 8.48962L50.823 9.36562C51.98 10.0027 52.9993 10.8628 53.8218 11.8962L54.6042 11.2734ZM51.3053 8.48962L51.7876 7.61362C50.399 6.84909 48.8726 6.36741 47.2967 6.19644L47.1889 7.19061L47.081 8.18477C48.3941 8.32723 49.666 8.72858 50.823 9.36562L51.3053 8.48962ZM47.1889 7.19061L47.2967 6.19644C45.7208 6.02547 44.1267 6.1686 42.6064 6.61756L42.8896 7.57661L43.1729 8.53567C44.4396 8.16158 45.7679 8.04231 47.081 8.18477L47.1889 7.19061ZM42.8896 7.57661L42.6064 6.61756C41.0862 7.06652 39.67 7.81239 38.4398 8.81206L39.0705 9.58813L39.7011 10.3642C40.7261 9.53125 41.9061 8.90975 43.1729 8.53567L42.8896 7.57661ZM39.0705 9.58813L38.4398 8.81206C37.2096 9.81172 36.1898 11.0453 35.4393 12.4416L36.3202 12.915L37.201 13.3885C37.8263 12.2251 38.6761 11.1972 39.7011 10.3642L39.0705 9.58813ZM36.3202 12.915L35.4442 12.4327L20.2961 39.9455L21.1721 40.4278L22.0481 40.9101L37.1962 13.3973L36.3202 12.915ZM21.1721 40.4278L20.301 39.9367C19.5225 41.3175 19.0254 42.8389 18.8385 44.413L19.8316 44.5309L20.8246 44.6488C20.9803 43.3372 21.3945 42.0695 22.0432 40.9189L21.1721 40.4278ZM19.8316 44.5309L18.8385 44.413C18.6516 45.9871 18.7787 47.5826 19.2122 49.1073L20.1741 48.8338L21.136 48.5603C20.7747 47.2898 20.6689 45.9604 20.8246 44.6488L19.8316 44.5309ZM20.1741 48.8338L19.2122 49.1073C19.6458 50.632 20.3774 52.0556 21.3645 53.2959L22.1469 52.6731L22.9294 52.0503C22.1068 51.0169 21.4973 49.8307 21.136 48.5603L20.1741 48.8338ZM22.1469 52.6731L21.3645 53.2959C22.3517 54.5361 23.575 55.5683 24.9636 56.3328L25.4459 55.4568L25.9282 54.5808C24.7712 53.9438 23.7519 53.0837 22.9294 52.0503L22.1469 52.6731ZM25.4459 55.4568L24.9636 56.3328C26.3522 57.0974 27.8786 57.5791 29.4545 57.75L29.5623 56.7559L29.6702 55.7617C28.3571 55.6192 27.0852 55.2179 25.9282 54.5808L25.4459 55.4568ZM29.5623 56.7559L29.4545 57.75C31.0304 57.921 32.6245 57.7779 34.1448 57.3289L33.8615 56.3699L33.5783 55.4108C32.3116 55.7849 30.9833 55.9042 29.6702 55.7617L29.5623 56.7559ZM33.8615 56.3699L34.1448 57.3289C35.665 56.88 37.0812 56.1341 38.3114 55.1344L37.6807 54.3583L37.0501 53.5823C36.025 54.4152 34.845 55.0367 33.5783 55.4108L33.8615 56.3699ZM37.6807 54.3583L38.3114 55.1344C39.5416 54.1347 40.5614 52.9011 41.3118 51.5049L40.431 51.0314L39.5502 50.558C38.9249 51.7214 38.0751 52.7493 37.0501 53.5823L37.6807 54.3583ZM28.7451 26.6719L28.2628 27.5479L47.5217 38.1516L48.0041 37.2756L48.4864 36.3996L29.2274 25.7959L28.7451 26.6719ZM8.76253 42.6436L9.63368 43.1346L14.0125 35.3658L13.1413 34.8748L12.2702 34.3838L7.89138 42.1526L8.76253 42.6436ZM8.89103 10.4776L8.02327 10.9746L12.0988 18.0906L12.9666 17.5937L13.8343 17.0967L9.75879 9.98065L8.89103 10.4776ZM25.193 13.9699L24.3195 13.4831L22.12 17.4292L22.9935 17.9161L23.867 18.4029L26.0665 14.4568L25.193 13.9699ZM28.7672 12.2112H27.7672C27.7672 13.044 27.0921 13.7191 26.2594 13.7191V14.7191V15.7191C28.1967 15.7191 29.7672 14.1486 29.7672 12.2112H28.7672ZM26.2594 14.7191V13.7191C25.4266 13.7191 24.7515 13.044 24.7515 12.2112L23.7515 12.2112H22.7515C22.7515 14.1486 24.322 15.7191 26.2594 15.7191V14.7191ZM23.7515 12.2112L24.7515 12.2112C24.7515 11.3785 25.4266 10.7034 26.2594 10.7034V9.70338V8.70338C24.322 8.70338 22.7515 10.2739 22.7515 12.2112H23.7515ZM26.2594 9.70338V10.7034C27.0921 10.7034 27.7672 11.3785 27.7672 12.2112H28.7672H29.7672C29.7672 10.2739 28.1967 8.70338 26.2594 8.70338V9.70338ZM10.0175 9.05562H9.01749C9.01749 9.63862 8.54487 10.1112 7.96187 10.1112V11.1112V12.1112C9.64944 12.1112 11.0175 10.7432 11.0175 9.05562H10.0175ZM7.96187 11.1112V10.1112C7.37887 10.1112 6.90625 9.63862 6.90625 9.05562H5.90625H4.90625C4.90625 10.7432 6.2743 12.1112 7.96187 12.1112V11.1112ZM5.90625 9.05562H6.90625C6.90625 8.47262 7.37887 8 7.96187 8V7V6C6.2743 6 4.90625 7.36805 4.90625 9.05562H5.90625ZM7.96187 7V8C8.54487 8 9.01749 8.47262 9.01749 9.05562H10.0175H11.0175C11.0175 7.36805 9.64944 6 7.96187 6V7ZM12.3036 35.6437L13.1696 35.1437L7.78023 25.8089L6.91421 26.3089L6.04818 26.8089L11.4376 36.1437L12.3036 35.6437ZM6.91421 26.3089L7.78023 26.8089L13.1696 17.4742L12.3036 16.9742L11.4376 16.4742L6.04818 25.8089L6.91421 26.3089ZM12.3036 16.9742L12.3036 17.9742H23.0824V16.9742V15.9742L12.3036 15.9742V16.9742ZM23.0824 16.9742L22.2164 17.4742L27.6058 26.8089L28.4719 26.3089L29.3379 25.8089L23.9485 16.4742L23.0824 16.9742ZM18.1085 35.6437V34.6437H12.3036V35.6437V36.6437H18.1085V35.6437ZM14.6728 30.2903L15.5388 29.7903L13.2396 25.8079L12.3735 26.3079L11.5075 26.8079L13.8067 30.7903L14.6728 30.2903ZM12.3735 26.3079L13.2466 26.7956L15.5458 22.68L14.6728 22.1923L13.7998 21.7046L11.5005 25.8202L12.3735 26.3079Z" fill="#053955"/>
</svg>
