<svg width="64" height="64" viewBox="0 0 64 64" fill="none" xmlns="http://www.w3.org/2000/svg">
<g clip-path="url(#clip0_3098_4024)">
<path d="M32 63C49.1208 63 63 49.1208 63 32C63 14.8792 49.1208 1 32 1C14.8792 1 1 14.8792 1 32C1 49.1208 14.8792 63 32 63Z" stroke="#0099A3" stroke-width="0.696629"/>
<path d="M32 0C49.6731 0 64 14.3269 64 32C64 49.6676 49.6821 63.9901 32.0166 63.999C32.012 63.999 32.0075 64 32.0029 64L32.001 63.999L32 64C14.3269 64 0 49.6731 0 32C0 14.3269 14.3269 0 32 0ZM32.001 2C25.4015 2.00077 19.8484 5.26009 15.9131 10.6445C11.9663 16.0448 9.66016 23.5777 9.66016 32C9.66016 40.4223 11.9663 47.9552 15.9131 53.3555C19.8484 58.7399 25.4015 61.9983 32.001 61.999C32.0052 61.999 32.0094 61.999 32.0137 61.999C38.6094 61.9955 44.1591 58.7376 48.0928 53.3555C52.0397 47.9552 54.3467 40.4225 54.3467 32C54.3467 23.5775 52.0397 16.0448 48.0928 10.6445C44.1591 5.26238 38.6094 2.00353 32.0137 2C32.0094 2 32.0052 2 32.001 2ZM17.7695 5.58398C8.38 10.6528 2 20.5811 2 32C2 43.4187 8.38022 53.3461 17.7695 58.415C16.5063 57.268 15.3456 55.9683 14.2988 54.5361C10.0579 48.7336 7.66016 40.7663 7.66016 32C7.66016 23.2337 10.0579 15.2664 14.2988 9.46387C15.3457 8.03149 16.5061 6.73109 17.7695 5.58398ZM46.2432 5.59082C47.5041 6.73645 48.6629 8.034 49.708 9.46387C53.9489 15.2664 56.3467 23.2337 56.3467 32C56.3467 40.7663 53.9489 48.7336 49.708 54.5361C48.6631 55.9658 47.5039 57.2627 46.2432 58.4082C55.6255 53.3372 62 43.4136 62 32C62 20.5863 55.6258 10.6618 46.2432 5.59082ZM31.9707 20.9062C32.156 20.903 32.3407 20.9367 32.5127 21.0059C32.6848 21.0751 32.8411 21.1788 32.9727 21.3096C33.1041 21.4403 33.2081 21.596 33.2783 21.7676C33.3485 21.9392 33.384 22.1232 33.3818 22.3086V23.4785C35.6178 23.9009 37.5369 25.3404 37.5371 27.834C37.5371 28.202 37.3911 28.5552 37.1309 28.8154C36.8707 29.0756 36.5174 29.2217 36.1494 29.2217C35.7816 29.2216 35.429 29.0755 35.1689 28.8154C34.9087 28.5552 34.7627 28.202 34.7627 27.834C34.7622 25.5242 29.229 25.5242 29.2285 27.834C29.2285 28.8736 29.474 29.2075 29.9844 29.6045C30.4948 30.0014 31.3921 30.3302 32.4316 30.6768C33.4712 31.0233 34.6552 31.3883 35.7041 32.2041C36.753 33.0199 37.537 34.4209 37.5371 36.1533C37.5371 38.6493 35.6186 40.094 33.3818 40.5156V41.6768C33.3859 41.8613 33.353 42.0451 33.2852 42.2168C33.2173 42.3885 33.1154 42.5448 32.9863 42.6768C32.8572 42.8087 32.7033 42.9138 32.5332 42.9854C32.363 43.057 32.1798 43.0938 31.9951 43.0938C31.8106 43.0937 31.6281 43.0569 31.458 42.9854C31.2878 42.9137 31.133 42.8088 31.0039 42.6768C30.875 42.5449 30.7738 42.3884 30.7061 42.2168C30.6383 42.0451 30.6053 41.8613 30.6094 41.6768V40.5156C28.373 40.0938 26.4561 38.649 26.4561 36.1533C26.452 35.969 26.4851 35.7857 26.5527 35.6143C26.6206 35.4425 26.7224 35.2853 26.8516 35.1533C26.9806 35.0214 27.1346 34.9163 27.3047 34.8447C27.4749 34.7731 27.6581 34.7363 27.8428 34.7363C28.0272 34.7364 28.2099 34.7733 28.3799 34.8447C28.5501 34.9163 28.7049 35.0213 28.834 35.1533C28.9631 35.2853 29.064 35.4425 29.1318 35.6143C29.1995 35.7858 29.2325 35.969 29.2285 36.1533C29.2285 38.4635 34.7627 38.4635 34.7627 36.1533C34.7626 35.1141 34.5171 34.7797 34.0068 34.3828C33.4964 33.986 32.599 33.6551 31.5596 33.3086C30.52 32.9621 29.3352 32.6001 28.2861 31.7842C27.2372 30.9682 26.4561 29.5665 26.4561 27.834C26.4562 25.3365 28.3714 23.8954 30.6094 23.4756V22.3086C30.6051 21.9425 30.746 21.5898 31.001 21.3271C31.256 21.0645 31.6047 20.9128 31.9707 20.9062Z" fill="#053955"/>
</g>
<defs>
<clipPath id="clip0_3098_4024">
<rect width="64" height="64" fill="white"/>
</clipPath>
</defs>
</svg>
