<svg width="64" height="64" viewBox="0 0 64 64" fill="none" xmlns="http://www.w3.org/2000/svg">
<path d="M32.4248 6.71875C35.9315 6.71893 38.7742 9.56165 38.7744 13.0684V23.7686C38.7744 27.7113 36.8224 31.1967 33.834 33.3164L35.3311 39.2998C35.9446 39.0526 36.6219 38.9865 37.2803 39.1182L44.8936 40.6406C49.1122 41.4841 52.1493 45.1881 52.1494 49.4902V53.1924C52.1494 53.7446 51.7016 54.1923 51.1494 54.1924C50.5971 54.1924 50.1494 53.7447 50.1494 53.1924V49.4902C50.1493 46.1416 47.7855 43.2582 44.502 42.6016L38.7754 41.4561V49.5977C41.8066 50.0778 44.1248 52.702 44.125 55.8682H43.125L44.125 55.876C44.1168 56.994 43.8124 58.0904 43.2432 59.0527C42.962 59.5278 42.3483 59.6852 41.873 59.4043C41.3978 59.1232 41.2405 58.5095 41.5215 58.0342C41.9097 57.3779 42.1182 56.6305 42.125 55.8682L42.1191 55.6445C42.0026 53.3462 40.1016 51.5186 37.7744 51.5186C35.3723 51.5187 33.425 53.466 33.4248 55.8682C33.4317 56.6305 33.6401 57.3779 34.0283 58.0342C34.3091 58.5094 34.1518 59.1231 33.6768 59.4043C33.2016 59.6853 32.5879 59.5276 32.3066 59.0527C31.7374 58.0904 31.4331 56.994 31.4248 55.876L32.4248 55.8682H31.4248C31.425 52.7013 33.7433 50.076 36.7754 49.5967V41.0615C36.4419 41.0223 36.1039 41.1027 35.8223 41.29L35.8213 41.2891C35.6205 41.423 35.4162 41.5501 35.2109 41.6738C35.2007 41.6802 35.1902 41.6863 35.1797 41.6924C29.9761 44.8139 23.4129 44.681 18.3271 41.2891C18.046 41.1021 17.708 41.0227 17.375 41.0615V49.6182C19.6639 50.0818 21.3867 52.1055 21.3867 54.5312C21.3864 57.2991 19.1429 59.5428 16.375 59.543C13.6069 59.543 11.3627 57.2992 11.3623 54.5312C11.3623 52.1054 13.0858 50.0817 15.375 49.6182V41.4561L9.64746 42.6016C6.36383 43.2582 4.00014 46.1416 4 49.4902V53.1924C4 53.7447 3.55227 54.1924 3 54.1924C2.44772 54.1924 2 53.7447 2 53.1924V49.4902C2.00014 45.1881 5.03719 41.4841 9.25586 40.6406L16.8691 39.1182C17.5289 38.9862 18.2076 39.0533 18.8223 39.3018L20.3184 33.3203C17.3275 31.2009 15.375 27.7131 15.375 23.7686V13.0684C15.3752 9.56164 18.2179 6.71892 21.7246 6.71875H32.4248ZM16.375 51.5186C14.7113 51.5186 13.3623 52.8675 13.3623 54.5312C13.3627 56.1947 14.7115 57.543 16.375 57.543C18.0384 57.5428 19.3864 56.1946 19.3867 54.5312C19.3867 52.8676 18.0386 51.5187 16.375 51.5186ZM32.0352 34.3633C30.6145 35.0297 29.0398 35.4227 27.377 35.4648L27.0752 35.4688L26.7725 35.4648C25.1115 35.4227 23.5376 35.0313 22.1182 34.3662L20.626 40.333C24.6573 42.4726 29.4955 42.4709 33.5264 40.3301L32.0352 34.3633ZM17.375 23.7686C17.375 27.2535 19.2133 30.3083 21.9727 32.0186C21.9806 32.0233 21.9883 32.0283 21.9961 32.0332C23.4734 32.943 25.2129 33.4688 27.0752 33.4688C32.4319 33.4684 36.7744 29.1254 36.7744 23.7686V19.4189H17.375V23.7686ZM58.9629 8.03027C61.1723 8.03054 62.9645 9.82186 62.9648 12.0312V21.0352C62.9648 23.2448 61.1725 25.0359 58.9629 25.0361H53.8896L50.5811 27.6826C50.0969 28.07 49.4339 28.1454 48.875 27.877C48.316 27.6083 47.9599 27.043 47.96 26.4229V25.0361H46.958C44.7483 25.036 42.957 23.2449 42.957 21.0352V12.0312C42.9574 9.82179 44.7485 8.03042 46.958 8.03027H58.9629ZM46.958 10.0303C45.8531 10.0304 44.9574 10.9264 44.957 12.0312V21.0352C44.957 22.1403 45.8529 23.036 46.958 23.0361H49.96V25.6182L52.9141 23.2559L53.1885 23.0361H58.9629C60.0679 23.0359 60.9648 22.1403 60.9648 21.0352V12.0312C60.9645 10.9264 60.0677 10.0305 58.9629 10.0303H46.958ZM21.7246 8.71875C19.3225 8.71892 17.3752 10.6662 17.375 13.0684V17.4189H36.7744V13.0684C36.7742 10.6662 34.8269 8.71893 32.4248 8.71875H21.7246Z" fill="#053955"/>
</svg>
