<svg width="179" height="38" viewBox="0 0 179 38" fill="none" xmlns="http://www.w3.org/2000/svg">
<rect x="17" y="15.751" width="6" height="6" fill="#07E77D"/>
<path d="M19.4276 30.4531C24.174 29.5643 25.6646 37.0654 20.7049 37.9296C15.7586 38.791 14.2336 31.4255 19.4276 30.4531ZM25.4618 8.23041C26.3756 7.43512 27.9289 7.17503 29.2606 7.74213C31.9432 8.88409 32.2059 12.2336 30.452 13.9414C29.3629 15.0011 28.5688 14.7867 26.9491 15.247C23.8408 16.1299 23.3887 19.2415 24.616 21.1494C26.2337 23.6633 29.1517 22.2187 30.8055 24.4785C32.6047 26.9372 31.0562 29.8633 28.7 30.4726C27.2571 30.8457 25.7279 30.2082 25.0496 29.4921C24.0139 28.3983 24.2705 27.5935 23.7059 26.0292C22.6139 23.0049 19.9484 22.3002 17.8543 23.7246C15.4208 25.3802 16.6681 28.293 14.4598 29.8437C11.9801 31.5846 9.12154 30.0832 8.5096 27.7148C8.1456 26.3058 8.73863 24.8408 9.43929 24.1025C10.3367 23.1579 11.3915 23.1947 12.9403 22.789C16.0548 21.9734 16.6218 18.8259 15.327 16.8388C13.687 14.3231 10.8276 15.8312 9.15511 13.4902C7.71676 11.4766 8.23936 8.48854 11.2537 7.58393C12.6905 7.15253 14.1494 7.80913 14.8787 8.51069C16.4086 9.9824 15.66 13.3541 18.37 14.6357C19.6357 15.2341 21.0599 15.0543 22.0584 14.3408C24.633 12.4996 23.1539 10.2375 25.4618 8.23041ZM34.5692 15.289C36.7553 14.8818 38.6025 16.5173 38.9256 18.2451C39.3644 20.5937 37.7842 22.415 35.9051 22.7294C33.563 23.1208 31.795 21.5491 31.4539 19.6523C31.0335 17.3119 32.7166 15.6346 34.5692 15.289ZM4.36409 15.2568C6.53097 14.9781 8.3454 16.6621 8.53304 18.5839C8.74821 20.7925 7.17936 22.5597 5.24105 22.7587C0.220062 23.2741 -0.677302 15.9059 4.36409 15.2568ZM22.0965 17.3544C22.2154 17.0588 21.9007 16.7702 21.5926 16.8925L20.7625 17.2226C20.0452 17.5073 19.2382 17.5195 18.5086 17.2568L17.5594 16.914C17.2479 16.8018 16.9469 17.0961 17.075 17.3876L17.4784 18.3046C17.7709 18.9704 17.7897 19.7148 17.5321 20.3906L17.243 21.1503C17.132 21.4421 17.4377 21.7228 17.742 21.6083L18.534 21.3105C19.2387 21.0454 20.0239 21.0406 20.7352 21.2968L21.7157 21.6494C22.027 21.7613 22.327 21.4681 22.1991 21.1767L21.8084 20.288C21.5085 19.6053 21.4965 18.8406 21.7743 18.1523L22.0965 17.3544ZM19.202 0.0810005C21.5347 -0.374507 23.325 1.15675 23.7137 3.02924C24.1874 5.31191 22.6091 7.13805 20.7899 7.53608C18.4809 8.04116 16.6659 6.44004 16.2537 4.62202C15.7327 2.32409 17.3836 0.436091 19.202 0.0810005Z" fill="#04314B"/>
<path d="M47.4201 29.751V25.879H53.1481C54.5988 25.879 55.8681 25.5803 56.9561 24.983C58.0441 24.3643 58.8868 23.5003 59.4841 22.391C60.1028 21.2816 60.4121 19.9696 60.4121 18.455C60.4121 16.983 60.1028 15.703 59.4841 14.615C58.8655 13.5056 58.0121 12.6523 56.9241 12.055C55.8361 11.4363 54.5775 11.127 53.1481 11.127H47.3241V7.25498H53.2121C54.8761 7.25498 56.4121 7.53231 57.8201 8.08698C59.2495 8.64164 60.4868 9.43098 61.5321 10.455C62.5988 11.4576 63.4201 12.6416 63.9961 14.007C64.5935 15.3723 64.8921 16.8656 64.8921 18.487C64.8921 20.1083 64.5935 21.6123 63.9961 22.999C63.4201 24.3643 62.6095 25.559 61.5641 26.583C60.5188 27.5856 59.2815 28.3643 57.8521 28.919C56.4441 29.4736 54.9188 29.751 53.2761 29.751H47.4201ZM44.4441 29.751V7.25498H48.7961V29.751H44.4441ZM74.0464 30.071C72.6384 30.071 71.3691 29.719 70.2384 29.015C69.1077 28.311 68.2224 27.351 67.5824 26.135C66.9424 24.919 66.6224 23.5536 66.6224 22.039C66.6224 20.503 66.9424 19.127 67.5824 17.911C68.2224 16.695 69.1077 15.735 70.2384 15.031C71.3691 14.327 72.6384 13.975 74.0464 13.975C75.1557 13.975 76.1477 14.199 77.0224 14.647C77.8971 15.095 78.5904 15.7243 79.1024 16.535C79.6357 17.3243 79.9237 18.2203 79.9664 19.223V24.791C79.9237 25.815 79.6357 26.7216 79.1024 27.511C78.5904 28.3003 77.8971 28.9296 77.0224 29.399C76.1477 29.847 75.1557 30.071 74.0464 30.071ZM74.8144 26.199C75.9877 26.199 76.9371 25.815 77.6624 25.047C78.3877 24.2576 78.7504 23.2443 78.7504 22.007C78.7504 21.1963 78.5797 20.4816 78.2384 19.863C77.9184 19.223 77.4597 18.7323 76.8624 18.391C76.2864 18.0283 75.6037 17.847 74.8144 17.847C74.0464 17.847 73.3637 18.0283 72.7664 18.391C72.1904 18.7323 71.7317 19.223 71.3904 19.863C71.0704 20.4816 70.9104 21.1963 70.9104 22.007C70.9104 22.839 71.0704 23.575 71.3904 24.215C71.7317 24.8336 72.1904 25.3243 72.7664 25.687C73.3637 26.0283 74.0464 26.199 74.8144 26.199ZM78.5264 29.751V25.591L79.1984 21.815L78.5264 18.103V14.295H82.6864V29.751H78.5264ZM88.3469 29.751V7.86298H92.5389V29.751H88.3469ZM84.7309 17.975V14.295H96.1549V17.975H84.7309ZM104.281 30.071C102.873 30.071 101.604 29.719 100.473 29.015C99.3427 28.311 98.4574 27.351 97.8174 26.135C97.1774 24.919 96.8574 23.5536 96.8574 22.039C96.8574 20.503 97.1774 19.127 97.8174 17.911C98.4574 16.695 99.3427 15.735 100.473 15.031C101.604 14.327 102.873 13.975 104.281 13.975C105.391 13.975 106.383 14.199 107.257 14.647C108.132 15.095 108.825 15.7243 109.337 16.535C109.871 17.3243 110.159 18.2203 110.201 19.223V24.791C110.159 25.815 109.871 26.7216 109.337 27.511C108.825 28.3003 108.132 28.9296 107.257 29.399C106.383 29.847 105.391 30.071 104.281 30.071ZM105.049 26.199C106.223 26.199 107.172 25.815 107.897 25.047C108.623 24.2576 108.985 23.2443 108.985 22.007C108.985 21.1963 108.815 20.4816 108.473 19.863C108.153 19.223 107.695 18.7323 107.097 18.391C106.521 18.0283 105.839 17.847 105.049 17.847C104.281 17.847 103.599 18.0283 103.001 18.391C102.425 18.7323 101.967 19.223 101.625 19.863C101.305 20.4816 101.145 21.1963 101.145 22.007C101.145 22.839 101.305 23.575 101.625 24.215C101.967 24.8336 102.425 25.3243 103.001 25.687C103.599 26.0283 104.281 26.199 105.049 26.199ZM108.761 29.751V25.591L109.433 21.815L108.761 18.103V14.295H112.921V29.751H108.761ZM127.19 30.071C125.547 30.071 124.022 29.783 122.614 29.207C121.206 28.6096 119.969 27.7883 118.902 26.743C117.857 25.6763 117.046 24.439 116.47 23.031C115.915 21.623 115.638 20.1083 115.638 18.487C115.638 16.8656 115.915 15.351 116.47 13.943C117.046 12.535 117.857 11.3083 118.902 10.263C119.969 9.21764 121.195 8.39631 122.582 7.79897C123.99 7.20164 125.526 6.90298 127.19 6.90298C128.982 6.90298 130.561 7.20164 131.926 7.79897C133.291 8.37498 134.497 9.17498 135.542 10.199L132.598 13.143C131.979 12.4603 131.222 11.927 130.326 11.543C129.43 11.159 128.385 10.967 127.19 10.967C126.145 10.967 125.185 11.1483 124.31 11.511C123.457 11.8523 122.71 12.3643 122.07 13.047C121.43 13.7083 120.939 14.5083 120.598 15.447C120.257 16.3643 120.086 17.3776 120.086 18.487C120.086 19.6176 120.257 20.6416 120.598 21.559C120.939 22.4763 121.43 23.2763 122.07 23.959C122.71 24.6203 123.457 25.1323 124.31 25.495C125.185 25.8576 126.145 26.039 127.19 26.039C128.449 26.039 129.526 25.847 130.422 25.463C131.339 25.079 132.107 24.535 132.726 23.831L135.67 26.775C134.625 27.8203 133.409 28.631 132.022 29.207C130.635 29.783 129.025 30.071 127.19 30.071ZM144.519 30.071C143.154 30.071 141.938 29.783 140.871 29.207C139.826 28.631 139.005 27.831 138.407 26.807C137.81 25.783 137.511 24.599 137.511 23.255V14.295H141.735V23.159C141.735 23.799 141.842 24.3536 142.055 24.823C142.269 25.271 142.589 25.6123 143.015 25.847C143.442 26.0816 143.943 26.199 144.519 26.199C145.394 26.199 146.077 25.9323 146.567 25.399C147.058 24.8656 147.303 24.119 147.303 23.159V14.295H151.495V23.255C151.495 24.6203 151.197 25.815 150.599 26.839C150.023 27.863 149.202 28.663 148.135 29.239C147.09 29.7936 145.885 30.071 144.519 30.071ZM154.514 29.751V6.61497H158.706V29.751H154.514ZM164.372 29.751V7.86298H168.564V29.751H164.372ZM160.756 17.975V14.295H172.18V17.975H160.756Z" fill="#04314B"/>
</svg>
